<svg viewBox="0 0 64 64" xml:space="preserve" xmlns="http://www.w3.org/2000/svg"><path d="M50.85 55.979a5.068 5.068 0 0 1-3.609-1.495l-15.009-15.01a.367.367 0 0 0-.516.001L16.708 54.484a5.071 5.071 0 0 1-3.609 1.495 5.094 5.094 0 0 1-3.425-1.319c-1.004-.91-1.576-2.183-1.61-3.582a5.449 5.449 0 0 1 1.583-3.969l14.852-14.852a.366.366 0 0 0-.001-.517L9.652 16.896c-2.013-2.013-2.167-5.168-.351-7.184a5.066 5.066 0 0 1 3.663-1.69 5.016 5.016 0 0 1 3.744 1.492l15.009 15.01c.185.184.328.187.514.001l15.011-15.01a5.08 5.08 0 0 1 4.122-1.469 5.128 5.128 0 0 1 3.767 2.292c1.322 1.995 1.006 4.718-.751 6.475L39.45 31.741a.366.366 0 0 0 0 .518l15.009 15.008a5.11 5.11 0 0 1 0 7.218 5.07 5.07 0 0 1-3.609 1.494zM31.975 37.37c.605 0 1.211.229 1.671.69l15.01 15.01c1.173 1.173 3.22 1.172 4.389 0a3.08 3.08 0 0 0 .91-2.194c0-.83-.323-1.609-.909-2.195l-15.01-15.009a2.369 2.369 0 0 1-.001-3.343l14.931-14.93c1.087-1.087 1.296-2.75.497-3.956-.537-.812-1.354-1.312-2.299-1.407a3.1 3.1 0 0 0-2.508.893l-15.01 15.009c-.891.893-2.45.895-3.343 0L15.294 10.929c-.608-.608-1.434-.91-2.277-.908a3.084 3.084 0 0 0-2.229 1.03c-1.085 1.204-.96 3.192.279 4.431l14.847 14.846c.921.922.921 2.422.001 3.343L11.061 48.523a3.437 3.437 0 0 0-.998 2.505c.021.848.359 1.611.954 2.149 1.182 1.071 3.144 1.024 4.277-.107l15.009-15.01a2.359 2.359 0 0 1 1.672-.69z"/></svg>